<svg width="44" height="44" viewBox="0 0 44 44" fill="none" xmlns="http://www.w3.org/2000/svg">
<path d="M44 22.3359C44 20.6467 42.9108 19.2079 41.3982 18.6825C41.1658 13.4417 39.2092 9.41987 35.573 6.71723C32.2543 4.25065 27.6878 3 22 3C16.3122 3 11.7457 4.25065 8.42703 6.71731C4.79084 9.41987 2.83422 13.4418 2.60176 18.6826C1.08917 19.2079 0 20.6467 0 22.3359C0 23.3257 0.374172 24.2293 0.987852 24.9141C0.374172 25.5988 0 26.5024 0 27.4922C0 29.1918 1.10258 30.6378 2.6296 31.1551C3.18252 37.0454 8.18967 41.6719 14.2656 41.6719H29.7344C35.8103 41.6719 40.8175 37.0454 41.3704 31.1551C42.8974 30.6378 44 29.1918 44 27.4922C44 26.5024 43.6258 25.5988 43.0121 24.9141C43.6258 24.2293 44 23.3257 44 22.3359V22.3359ZM22 5.57812C29.3933 5.57812 38.1513 7.85719 38.8034 18.4688H5.19655C5.84873 7.85719 14.6067 5.57812 22 5.57812ZM3.86719 21.0469H40.1328C40.8436 21.0469 41.4219 21.6251 41.4219 22.3359C41.4219 23.0467 40.8436 23.625 40.1328 23.625H3.86719C3.1564 23.625 2.57812 23.0467 2.57812 22.3359C2.57812 21.6251 3.1564 21.0469 3.86719 21.0469ZM29.7344 39.0938H14.2656C9.68455 39.0938 5.88302 35.7265 5.24958 31.3594H6.44531C7.30709 31.3594 7.57943 31.6525 8.12187 32.2366C8.78857 32.9545 9.70166 33.9375 11.6875 33.9375C13.6874 33.9375 14.5766 32.9444 15.226 32.2193C15.7387 31.6468 15.996 31.3594 16.8438 31.3594C17.6915 31.3594 17.9488 31.6468 18.4615 32.2193C19.1109 32.9444 20.0001 33.9375 22 33.9375C23.9999 33.9375 24.8891 32.9444 25.5385 32.2193C26.0512 31.6468 26.3085 31.3594 27.1562 31.3594C28.004 31.3594 28.2613 31.6468 28.774 32.2193C29.4234 32.9444 30.3126 33.9375 32.3125 33.9375C34.3124 33.9375 35.2016 32.9444 35.851 32.2193C36.3637 31.6468 36.621 31.3594 37.4688 31.3594H38.7504C38.117 35.7265 34.3154 39.0938 29.7344 39.0938ZM40.1328 28.7812H37.4688C35.4689 28.7812 34.5796 29.7743 33.9303 30.4995C33.4176 31.072 33.1603 31.3594 32.3125 31.3594C31.4647 31.3594 31.2074 31.072 30.6947 30.4995C30.0454 29.7743 29.1561 28.7812 27.1562 28.7812C25.1564 28.7812 24.2671 29.7743 23.6178 30.4995C23.1051 31.072 22.8478 31.3594 22 31.3594C21.1522 31.3594 20.8949 31.072 20.3822 30.4995C19.7329 29.7743 18.8436 28.7812 16.8438 28.7812C14.8439 28.7812 13.9546 29.7743 13.3053 30.4995C12.7926 31.072 12.5353 31.3594 11.6875 31.3594C10.8257 31.3594 10.5534 31.0662 10.0109 30.4821C9.34424 29.7643 8.43116 28.7812 6.44531 28.7812H3.86719C3.1564 28.7812 2.57812 28.203 2.57812 27.4922C2.57812 26.7814 3.1564 26.2031 3.86719 26.2031H40.1328C40.8436 26.2031 41.4219 26.7814 41.4219 27.4922C41.4219 28.203 40.8436 28.7812 40.1328 28.7812Z" fill="#363853"/>
</svg>
